<svg xmlns="http://www.w3.org/2000/svg" viewBox="0 0 36 26">
  <defs>
    <linearGradient id="fade" x1="0" y1="26" x2="0" y2="2" gradientUnits="userSpaceOnUse">
      <stop offset="0%" stop-color="white" stop-opacity="1"/>
      <stop offset="50%" stop-color="white" stop-opacity="0.5"/>
      <stop offset="100%" stop-color="white" stop-opacity="0"/>
    </linearGradient>
  </defs>
  <path d="M36 20.917c0-.688-2.895-.5-3.125-1s3.208-4.584 2.708-5.5s-5.086 1.167-5.375.708c-.288-.458.292-3.5-.208-3.875s-5.25 4.916-5.917 4.292s1.542-10.5 1.086-10.698s-3.419 1.365-3.793 1.282C21.002 6.042 18.682 0 18 0s-3.002 6.042-3.376 6.125s-3.337-1.48-3.793-1.282s1.752 10.073 1.085 10.698C11.25 16.166 6.5 10.875 6 11.25s.08 3.417-.208 3.875c-.289.458-4.875-1.625-5.375-.708s2.939 5 2.708 5.5s-3.125.312-3.125 1s8.438 5.235 9 5.771s-2.914 2.802-2.417 3.229c.576.496 3.839-.83 10.417-.957" fill="url(#fade)"/>
</svg>